<svg width="16" height="16" viewBox="0 0 16 16" fill="none" xmlns="http://www.w3.org/2000/svg">
<path fill-rule="evenodd" clip-rule="evenodd" d="M14.9999 14.295L11.2249 10.5C13.0996 8.23809 12.8656 4.9022 10.6936 2.92405C8.52165 0.945895 5.17849 1.02393 3.10116 3.10126C1.02382 5.1786 0.945788 8.52176 2.92394 10.6938C4.9021 12.8657 8.23798 13.0997 10.4999 11.225L14.2949 15L14.9999 14.295ZM2.49991 7C2.49991 4.51472 4.51463 2.5 6.99991 2.5C9.48519 2.5 11.4999 4.51472 11.4999 7C11.4999 9.48528 9.48519 11.5 6.99991 11.5C4.51463 11.5 2.49991 9.48528 2.49991 7Z" fill="#767676"/>
<mask id="mask0_2101_13756" style="mask-type:alpha" maskUnits="userSpaceOnUse" x="1" y="1" width="14" height="14">
<path fill-rule="evenodd" clip-rule="evenodd" d="M14.9999 14.295L11.2249 10.5C13.0996 8.23809 12.8656 4.9022 10.6936 2.92405C8.52165 0.945895 5.17849 1.02393 3.10116 3.10126C1.02382 5.1786 0.945788 8.52176 2.92394 10.6938C4.9021 12.8657 8.23798 13.0997 10.4999 11.225L14.2949 15L14.9999 14.295ZM2.49991 7C2.49991 4.51472 4.51463 2.5 6.99991 2.5C9.48519 2.5 11.4999 4.51472 11.4999 7C11.4999 9.48528 9.48519 11.5 6.99991 11.5C4.51463 11.5 2.49991 9.48528 2.49991 7Z" fill="white"/>
</mask>
<g mask="url(#mask0_2101_13756)">
</g>
</svg>
